<svg width="636" height="649" viewBox="0 0 636 649" fill="none" xmlns="http://www.w3.org/2000/svg">
<path d="M453.011 159.695C377.251 166.907 317.988 230.709 317.988 308.382C317.988 230.709 258.725 166.907 182.965 159.695C188.91 142.76 196.306 126.538 205.039 111.17C230.891 65.7087 268.334 27.7362 313.357 1.26152C316.191 -0.420508 319.762 -0.420508 322.596 1.26152C367.643 27.7132 405.085 65.7087 430.915 111.17C439.647 126.538 447.044 142.76 452.988 159.695H453.011Z" fill="#8554C8"/>
<path d="M317.988 308.382V639.212C317.988 626.194 316.306 613.567 313.173 601.516C292.481 506.263 207.758 434.926 106.329 434.926C104.993 434.926 103.656 434.949 102.343 434.972C101.075 434.995 99.8313 435.041 98.587 435.087C93.3566 435.295 88.3336 435.686 83.61 436.216C82.4349 436.332 81.2828 436.47 80.1307 436.631C79.6699 436.677 79.2321 436.746 78.7943 436.792C77.3427 437 75.9372 437.184 74.5547 437.391C74.2091 437.461 73.8635 437.507 73.5178 437.553C72.4579 437.714 71.4211 437.875 70.4072 438.06C65.9833 438.82 61.951 439.627 58.4717 440.41C57.2275 440.686 56.0524 440.963 54.9464 441.239C54.9003 441.239 54.8542 441.262 54.8081 441.262C49.1399 442.645 43.6099 438.474 43.4487 432.668C43.0339 419.719 43.2643 406.285 43.08 392.161C42.9187 378.935 43.08 372.507 43.08 362.829V171.515C43.08 164.626 48.6791 159.027 55.5915 159.027H168.656C173.472 159.027 178.265 159.257 182.965 159.695C258.726 166.907 317.988 230.709 317.988 308.382Z" fill="#ECDEFF"/>
<path d="M317.988 646.47C263.633 652.277 227.043 640.756 203.472 628.866C150.661 602.207 104.209 543.958 66.7204 506.931C63.6328 503.866 60.5913 500.94 57.5959 498.198C39.8079 481.815 24.2549 471.677 11.2825 474.189C8.77096 474.673 1.09812 476.654 0.107331 474.627C-1.75903 470.756 21.029 453.59 43.9784 444.258C43.9784 444.258 44.0014 444.258 44.0014 444.235C44.1627 444.189 48.1489 442.875 54.8079 441.262C54.854 441.262 54.9001 441.239 54.9461 441.239C56.0521 440.963 57.2273 440.686 58.4715 440.41C61.9508 439.627 65.983 438.82 70.407 438.06C71.4208 437.898 72.4577 437.737 73.5176 437.553C73.8632 437.507 74.2088 437.461 74.5545 437.391C75.937 437.184 77.3425 437 78.7941 436.792C79.2319 436.746 79.6697 436.677 80.1305 436.631C81.2826 436.47 82.4347 436.332 83.6098 436.216C88.3333 435.686 93.3564 435.295 98.5868 435.087C99.831 435.041 101.075 434.995 102.343 434.972C103.656 434.972 104.992 434.926 106.329 434.926C207.758 434.926 292.481 506.263 313.172 601.516C316.306 616.009 317.988 631.055 317.988 646.47Z" fill="#00A085"/>
<path d="M592.897 391.792C592.69 405.686 592.644 419.719 591.883 433.521C591.561 439.258 586.123 443.29 580.547 441.954C569.234 439.258 550.639 435.779 529.671 435.779C429.694 435.779 345.915 505.111 323.749 598.314C320.039 611.332 318.012 625.042 317.989 639.235V308.405C317.989 230.732 377.252 166.93 453.012 159.718C457.713 159.28 462.505 159.05 467.321 159.05H583.681C588.773 159.05 592.897 163.174 592.897 168.267V362.852C592.897 372.53 593.035 382.345 592.897 391.815V391.792Z" fill="#DBC3FB"/>
<path d="M635.893 475.456C634.902 477.484 627.229 475.502 624.717 475.019C611.814 472.507 596.399 482.507 578.75 498.705C574.095 502.968 569.303 507.668 564.372 512.668C527.759 549.765 483.058 604.189 432.528 629.696C408.957 641.586 372.367 653.106 317.989 647.3C318.012 630.434 320.016 614.028 323.749 598.291C345.915 505.088 429.694 435.756 529.671 435.756C560.385 435.756 586.054 443.221 591.1 444.788C591.699 444.972 592.022 445.088 592.022 445.088C614.971 454.419 637.759 471.585 635.893 475.456Z" fill="#00D3B0"/>
</svg>
