<svg width="1035" height="232" viewBox="0 0 1035 232" fill="none" xmlns="http://www.w3.org/2000/svg">
<path d="M273.602 180V48.0231H357.92V66.0783H292.757V103.105H346.922V121.16H292.757V161.945H357.92V180H273.602ZM406.418 182.75C397.192 182.75 389.218 180.458 382.497 175.876C375.837 171.293 370.674 165.061 367.008 157.179C363.403 149.236 361.601 140.315 361.601 130.417C361.601 120.458 363.434 111.568 367.1 103.747C370.766 95.8647 375.959 89.663 382.68 85.1416C389.462 80.5591 397.497 78.2678 406.784 78.2678C416.133 78.2678 423.984 80.5591 430.339 85.1416C436.754 89.663 441.581 95.8647 444.819 103.747C448.119 111.629 449.768 120.519 449.768 130.417C449.768 140.315 448.119 149.205 444.819 157.087C441.52 164.969 436.662 171.232 430.247 175.876C423.831 180.458 415.888 182.75 406.418 182.75ZM409.076 165.428C415.369 165.428 420.501 163.931 424.473 160.937C428.444 157.943 431.347 153.818 433.18 148.564C435.013 143.309 435.929 137.26 435.929 130.417C435.929 123.574 434.982 117.525 433.088 112.27C431.255 107.016 428.383 102.922 424.473 99.989C420.624 97.0562 415.705 95.5898 409.717 95.5898C403.363 95.5898 398.139 97.1478 394.045 100.264C389.951 103.38 386.896 107.565 384.88 112.82C382.925 118.075 381.947 123.94 381.947 130.417C381.947 136.955 382.925 142.882 384.88 148.197C386.896 153.452 389.89 157.637 393.862 160.753C397.894 163.869 402.966 165.428 409.076 165.428ZM435.929 180V108.787H433.73V48.0231H452.976V180H435.929ZM465.789 180V48.0231H517.663C526.034 48.0231 533.06 49.7339 538.743 53.1555C544.425 56.5772 548.702 61.0069 551.574 66.4449C554.445 71.8217 555.881 77.5041 555.881 83.4919C555.881 90.7629 554.079 96.9951 550.474 102.189C546.93 107.382 542.134 110.926 536.085 112.82L535.901 108.329C544.333 110.407 550.81 114.47 555.331 120.519C559.853 126.507 562.114 133.503 562.114 141.507C562.114 149.266 560.555 156.018 557.439 161.762C554.384 167.505 549.893 171.996 543.967 175.234C538.101 178.411 530.983 180 522.612 180H465.789ZM485.219 161.762H519.679C524.017 161.762 527.897 160.937 531.319 159.287C534.802 157.637 537.521 155.285 539.476 152.23C541.492 149.114 542.5 145.417 542.5 141.14C542.5 137.169 541.614 133.594 539.842 130.417C538.132 127.179 535.626 124.643 532.327 122.81C529.089 120.916 525.27 119.969 520.871 119.969H485.219V161.762ZM485.219 101.914H517.388C520.932 101.914 524.109 101.211 526.92 99.8057C529.791 98.3393 532.052 96.2619 533.702 93.5735C535.413 90.824 536.268 87.5245 536.268 83.6752C536.268 78.5428 534.557 74.3268 531.136 71.0274C527.714 67.728 523.131 66.0783 517.388 66.0783H485.219V101.914ZM569.354 180V45.2736H588.509V180H569.354ZM640.502 182.658C633.659 182.658 627.915 181.558 623.272 179.358C618.628 177.159 614.84 174.287 611.907 170.743C609.035 167.138 606.836 163.228 605.308 159.012C603.781 154.796 602.742 150.672 602.192 146.639C601.642 142.607 601.367 139.063 601.367 136.008V81.0173H620.797V129.684C620.797 133.533 621.103 137.505 621.714 141.598C622.386 145.631 623.608 149.389 625.38 152.871C627.213 156.354 629.748 159.165 632.987 161.303C636.286 163.442 640.563 164.511 645.818 164.511C649.239 164.511 652.478 163.961 655.533 162.861C658.588 161.7 661.246 159.867 663.506 157.362C665.828 154.857 667.631 151.558 668.914 147.464C670.258 143.37 670.93 138.391 670.93 132.525L682.845 137.016C682.845 145.998 681.164 153.941 677.804 160.845C674.443 167.688 669.616 173.035 663.323 176.884C657.03 180.733 649.423 182.658 640.502 182.658ZM673.221 180V151.405H670.93V81.0173H690.268V180H673.221ZM821.738 180L821.83 118.319C821.83 111.17 819.997 105.61 816.331 101.639C812.665 97.6061 807.838 95.5898 801.85 95.5898C798.184 95.5898 794.824 96.4452 791.769 98.156C788.775 99.8057 786.331 102.311 784.436 105.671C782.603 108.971 781.687 113.126 781.687 118.136L772.43 113.462C772.308 106.496 773.774 100.386 776.829 95.1315C779.946 89.8769 784.162 85.8137 789.477 82.942C794.793 80.0092 800.75 78.5428 807.349 78.5428C818.042 78.5428 826.321 81.7505 832.186 88.1661C838.052 94.5816 840.985 103.105 840.985 113.737L840.893 180H821.738ZM703.051 180V81.0173H720.098V109.612H722.297V180H703.051ZM762.44 180L762.532 118.686C762.532 111.476 760.699 105.824 757.033 101.73C753.428 97.6366 748.571 95.5898 742.46 95.5898C736.412 95.5898 731.524 97.6672 727.796 101.822C724.13 105.977 722.297 111.415 722.297 118.136L713.132 112.27C713.132 105.794 714.69 100.02 717.806 94.9482C720.923 89.8769 725.139 85.8748 730.454 82.942C735.77 80.0092 741.788 78.5428 748.509 78.5428C755.536 78.5428 761.524 80.0397 766.473 83.0336C771.422 85.9665 775.18 90.0907 777.746 95.4065C780.373 100.722 781.687 106.893 781.687 113.92L781.595 180H762.44ZM894.601 182.75C884.763 182.75 876.118 180.611 868.663 176.334C861.27 171.996 855.496 165.977 851.341 158.279C847.248 150.519 845.201 141.537 845.201 131.334C845.201 120.519 847.217 111.14 851.25 103.197C855.343 95.2537 861.026 89.1131 868.297 84.775C875.568 80.4369 884.03 78.2678 893.684 78.2678C903.766 78.2678 912.35 80.6202 919.438 85.3249C926.525 89.9685 931.811 96.5979 935.293 105.213C938.837 113.828 940.243 124.063 939.509 135.916H920.354V128.951C920.232 117.464 918.033 108.971 913.755 103.472C909.54 97.9727 903.093 95.2232 894.417 95.2232C884.824 95.2232 877.615 98.2476 872.788 104.297C867.961 110.346 865.547 119.083 865.547 130.509C865.547 141.385 867.961 149.816 872.788 155.804C877.615 161.731 884.58 164.694 893.684 164.694C899.672 164.694 904.835 163.35 909.173 160.662C913.572 157.912 916.994 154.002 919.438 148.93L938.226 154.888C934.377 163.747 928.542 170.621 920.721 175.509C912.9 180.336 904.193 182.75 894.601 182.75ZM859.315 135.916V120.977H929.978V135.916H859.315Z" fill="black"/>
<path d="M161.395 56.8947C134.404 59.4641 113.29 82.1949 113.29 109.868C113.29 82.1949 92.1763 59.4641 65.1851 56.8947C67.303 50.8611 69.9381 45.0819 73.0493 39.6065C82.2598 23.4101 95.5995 9.88162 111.64 0.449444C112.65 -0.149815 113.922 -0.149815 114.932 0.449444C130.98 9.87341 144.32 23.4101 153.522 39.6065C156.634 45.0819 159.269 50.8611 161.387 56.8947H161.395Z" fill="#8554C8"/>
<path d="M113.29 109.868V227.733C113.29 223.095 112.691 218.596 111.574 214.303C104.203 180.367 74.018 154.952 37.8818 154.952C37.4057 154.952 36.9296 154.96 36.4617 154.968C36.0102 154.976 35.5669 154.993 35.1236 155.009C33.2602 155.083 31.4706 155.223 29.7877 155.411C29.3691 155.452 28.9586 155.502 28.5482 155.559C28.384 155.576 28.228 155.6 28.072 155.617C27.5549 155.69 27.0541 155.756 26.5616 155.83C26.4384 155.855 26.3153 155.871 26.1922 155.887C25.8146 155.945 25.4452 156.002 25.084 156.068C23.5078 156.339 22.0712 156.626 20.8317 156.905C20.3884 157.004 19.9697 157.102 19.5757 157.201C19.5593 157.201 19.5429 157.209 19.5265 157.209C17.507 157.702 15.5369 156.216 15.4794 154.147C15.3316 149.534 15.4137 144.748 15.348 139.716C15.2906 135.004 15.348 132.713 15.348 129.266V61.106C15.348 58.6515 17.3428 56.6567 19.8056 56.6567H60.0872C61.8029 56.6567 63.5104 56.7388 65.1851 56.8948C92.1763 59.4642 113.29 82.195 113.29 109.868Z" fill="#ECDEFF"/>
<path d="M113.29 230.319C93.9249 232.387 80.8889 228.283 72.4911 224.047C53.676 214.549 37.1266 193.797 23.7705 180.605C22.6705 179.513 21.5869 178.471 20.5198 177.494C14.1824 171.657 8.6413 168.045 4.01962 168.94C3.12484 169.112 0.391227 169.818 0.038239 169.096C-0.626692 167.717 7.49204 161.601 15.6682 158.276C15.6682 158.276 15.6764 158.276 15.6764 158.268C15.7339 158.252 17.1541 157.784 19.5265 157.209C19.5429 157.209 19.5593 157.201 19.5757 157.201C19.9698 157.102 20.3884 157.004 20.8317 156.905C22.0713 156.626 23.5078 156.339 25.084 156.068C25.4452 156.011 25.8146 155.953 26.1922 155.887C26.3153 155.871 26.4385 155.855 26.5616 155.83C27.0541 155.756 27.5549 155.69 28.0721 155.617C28.228 155.6 28.384 155.576 28.5482 155.559C28.9586 155.502 29.3691 155.452 29.7878 155.411C31.4706 155.223 33.2602 155.083 35.1236 155.009C35.5669 154.993 36.0102 154.976 36.4617 154.968C36.9296 154.968 37.4057 154.952 37.8819 154.952C74.018 154.952 104.203 180.367 111.574 214.303C112.691 219.466 113.29 224.827 113.29 230.319Z" fill="#00A085"/>
<path d="M211.232 139.584C211.158 144.534 211.142 149.534 210.871 154.451C210.756 156.495 208.819 157.932 206.832 157.455C202.802 156.495 196.177 155.255 188.707 155.255C153.088 155.255 123.24 179.956 115.343 213.162C114.021 217.8 113.298 222.684 113.29 227.741V109.876C113.29 82.2033 134.404 59.4725 161.395 56.9031C163.07 56.7471 164.777 56.665 166.493 56.665H207.949C209.763 56.665 211.232 58.1345 211.232 59.9486V129.274C211.232 132.722 211.281 136.219 211.232 139.593V139.584Z" fill="#DBC3FB"/>
<path d="M226.55 169.391C226.197 170.114 223.464 169.408 222.569 169.236C217.972 168.341 212.48 171.903 206.192 177.674C204.534 179.193 202.826 180.868 201.069 182.649C188.025 195.866 172.1 215.255 154.097 224.343C145.7 228.579 132.664 232.683 113.29 230.614C113.298 224.605 114.013 218.761 115.343 213.154C123.24 179.948 153.088 155.247 188.707 155.247C199.649 155.247 208.794 157.907 210.592 158.465C210.805 158.531 210.92 158.572 210.92 158.572C219.096 161.897 227.215 168.012 226.55 169.391Z" fill="#00D3B0"/>
</svg>
