<svg width="636" height="649" viewBox="0 0 636 649" fill="none" xmlns="http://www.w3.org/2000/svg">
<path d="M453.011 159.844C377.251 167.056 317.988 230.858 317.988 308.531C317.988 230.858 258.725 167.056 182.965 159.844C188.91 142.909 196.306 126.687 205.039 111.319C230.891 65.8578 268.334 27.8854 313.357 1.41069C316.191 -0.271338 319.762 -0.271338 322.596 1.41069C367.643 27.8624 405.085 65.8578 430.915 111.319C439.647 126.687 447.044 142.909 452.988 159.844H453.011Z" fill="#8554C8"/>
<path d="M317.988 308.531V639.361C317.988 626.343 316.306 613.716 313.173 601.665C292.481 506.412 207.758 435.075 106.329 435.075C104.993 435.075 103.656 435.098 102.343 435.121C101.075 435.144 99.8313 435.19 98.587 435.236C93.3566 435.444 88.3336 435.836 83.61 436.366C82.4349 436.481 81.2828 436.619 80.1307 436.78C79.6699 436.826 79.2321 436.895 78.7943 436.942C77.3427 437.149 75.9372 437.333 74.5547 437.541C74.2091 437.61 73.8635 437.656 73.5178 437.702C72.4579 437.863 71.4211 438.024 70.4072 438.209C65.9833 438.969 61.951 439.776 58.4717 440.559C57.2275 440.836 56.0524 441.112 54.9464 441.389C54.9003 441.389 54.8542 441.412 54.8081 441.412C49.1399 442.794 43.6099 438.624 43.4487 432.817C43.0339 419.868 43.2643 406.435 43.08 392.31C42.9187 379.084 43.08 372.656 43.08 362.978V171.665C43.08 164.775 48.6791 159.176 55.5915 159.176H168.656C173.472 159.176 178.265 159.406 182.965 159.844C258.726 167.056 317.988 230.858 317.988 308.531Z" fill="#ECDEFF"/>
<path d="M317.988 646.619C263.633 652.426 227.043 640.905 203.472 629.016C150.661 602.357 104.209 544.108 66.7204 507.08C63.6328 504.015 60.5913 501.089 57.5959 498.347C39.8079 481.965 24.2549 471.826 11.2825 474.338C8.77096 474.822 1.09812 476.803 0.107331 474.776C-1.75903 470.905 21.029 453.739 43.9784 444.407C43.9784 444.407 44.0014 444.407 44.0014 444.384C44.1627 444.338 48.1489 443.025 54.8079 441.412C54.854 441.412 54.9001 441.389 54.9461 441.389C56.0521 441.112 57.2273 440.836 58.4715 440.559C61.9508 439.776 65.983 438.969 70.407 438.209C71.4208 438.048 72.4577 437.886 73.5176 437.702C73.8632 437.656 74.2088 437.61 74.5545 437.541C75.937 437.333 77.3425 437.149 78.7941 436.942C79.2319 436.895 79.6697 436.826 80.1305 436.78C81.2826 436.619 82.4347 436.481 83.6098 436.366C88.3333 435.836 93.3564 435.444 98.5868 435.236C99.831 435.19 101.075 435.144 102.343 435.121C103.656 435.121 104.992 435.075 106.329 435.075C207.758 435.075 292.481 506.412 313.172 601.665C316.306 616.158 317.988 631.205 317.988 646.619Z" fill="#00A085"/>
<path d="M592.897 391.942C592.69 405.836 592.644 419.868 591.883 433.67C591.561 439.407 586.123 443.439 580.547 442.103C569.234 439.407 550.639 435.928 529.671 435.928C429.694 435.928 345.915 505.26 323.749 598.463C320.039 611.481 318.012 625.191 317.989 639.384V308.554C317.989 230.881 377.252 167.079 453.012 159.867C457.713 159.43 462.505 159.199 467.321 159.199H583.681C588.773 159.199 592.897 163.324 592.897 168.416V363.001C592.897 372.679 593.035 382.495 592.897 391.965V391.942Z" fill="#DBC3FB"/>
<path d="M635.893 475.605C634.902 477.633 627.229 475.652 624.717 475.168C611.814 472.656 596.399 482.656 578.75 498.854C574.095 503.117 569.303 507.817 564.372 512.818C527.759 549.914 483.058 604.338 432.528 629.845C408.957 641.735 372.367 653.256 317.989 647.449C318.012 630.583 320.016 614.177 323.749 598.44C345.915 505.237 429.694 435.905 529.671 435.905C560.385 435.905 586.054 443.37 591.1 444.937C591.699 445.122 592.022 445.237 592.022 445.237C614.971 454.569 637.759 471.734 635.893 475.605Z" fill="#00D3B0"/>
</svg>
