<svg width="833" height="734" viewBox="0 0 833 734" fill="none" xmlns="http://www.w3.org/2000/svg">
<path d="M96.9879 604V476.382H178.521V493.841H115.51V529.645H167.887V547.104H115.51V586.541H178.521V604H96.9879ZM225.417 606.659C216.495 606.659 208.785 604.443 202.286 600.012C195.846 595.581 190.854 589.554 187.309 581.933C183.823 574.252 182.08 565.626 182.08 556.055C182.08 546.424 183.853 537.828 187.397 530.265C190.942 522.644 195.964 516.647 202.463 512.275C209.022 507.844 216.791 505.628 225.771 505.628C234.811 505.628 242.403 507.844 248.548 512.275C254.751 516.647 259.419 522.644 262.55 530.265C265.741 537.887 267.336 546.483 267.336 556.055C267.336 565.626 265.741 574.223 262.55 581.844C259.36 589.466 254.663 595.522 248.459 600.012C242.255 604.443 234.575 606.659 225.417 606.659ZM227.987 589.909C234.072 589.909 239.035 588.461 242.876 585.566C246.716 582.671 249.522 578.683 251.295 573.602C253.067 568.521 253.954 562.672 253.954 556.055C253.954 549.438 253.038 543.588 251.206 538.507C249.434 533.426 246.657 529.468 242.876 526.632C239.154 523.796 234.397 522.378 228.607 522.378C222.463 522.378 217.411 523.885 213.453 526.898C209.494 529.911 206.54 533.958 204.59 539.039C202.7 544.12 201.754 549.792 201.754 556.055C201.754 562.377 202.7 568.108 204.59 573.248C206.54 578.329 209.435 582.376 213.276 585.389C217.175 588.402 222.079 589.909 227.987 589.909ZM253.954 604V535.14H251.827V476.382H270.438V604H253.954ZM282.827 604V476.382H332.988C341.082 476.382 347.876 478.037 353.371 481.345C358.866 484.654 363.001 488.937 365.778 494.196C368.555 499.395 369.944 504.89 369.944 510.68C369.944 517.71 368.201 523.737 364.715 528.759C361.288 533.781 356.65 537.208 350.801 539.039L350.624 534.697C358.777 536.705 365.04 540.634 369.412 546.483C373.784 552.274 375.97 559.038 375.97 566.778C375.97 574.282 374.463 580.81 371.45 586.364C368.496 591.918 364.153 596.26 358.423 599.392C352.751 602.464 345.868 604 337.773 604H282.827ZM301.615 586.364H334.937C339.132 586.364 342.884 585.566 346.192 583.971C349.56 582.376 352.189 580.101 354.08 577.147C356.03 574.134 357.005 570.559 357.005 566.424C357.005 562.583 356.148 559.127 354.434 556.055C352.78 552.923 350.358 550.472 347.167 548.699C344.036 546.867 340.343 545.952 336.089 545.952H301.615V586.364ZM301.615 528.493H332.722C336.149 528.493 339.221 527.813 341.939 526.455C344.715 525.037 346.901 523.028 348.497 520.428C350.151 517.77 350.978 514.579 350.978 510.857C350.978 505.894 349.324 501.817 346.015 498.627C342.707 495.436 338.275 493.841 332.722 493.841H301.615V528.493ZM382.971 604V473.724H401.493V604H382.971ZM451.769 606.57C445.152 606.57 439.598 605.507 435.108 603.38C430.618 601.253 426.955 598.476 424.119 595.049C421.342 591.563 419.215 587.782 417.738 583.705C416.261 579.629 415.256 575.641 414.725 571.741C414.193 567.842 413.927 564.415 413.927 561.461V508.287H432.715V555.346C432.715 559.068 433.011 562.908 433.601 566.867C434.251 570.766 435.433 574.4 437.146 577.767C438.919 581.135 441.371 583.853 444.502 585.921C447.692 587.989 451.828 589.023 456.909 589.023C460.218 589.023 463.349 588.491 466.303 587.427C469.258 586.305 471.828 584.532 474.014 582.11C476.259 579.688 478.002 576.497 479.242 572.539C480.542 568.58 481.192 563.765 481.192 558.093L492.713 562.436C492.713 571.121 491.088 578.801 487.839 585.478C484.589 592.095 479.922 597.265 473.836 600.987C467.751 604.709 460.395 606.57 451.769 606.57ZM483.408 604V576.35H481.192V508.287H499.892V604H483.408ZM627.019 604L627.108 544.357C627.108 537.444 625.335 532.067 621.79 528.227C618.245 524.328 613.578 522.378 607.788 522.378C604.243 522.378 600.993 523.205 598.039 524.859C595.144 526.455 592.781 528.877 590.949 532.126C589.177 535.317 588.291 539.335 588.291 544.179L579.34 539.659C579.222 532.924 580.639 527.016 583.594 521.935C586.607 516.854 590.683 512.925 595.824 510.148C600.964 507.312 606.724 505.894 613.105 505.894C623.445 505.894 631.45 508.996 637.122 515.199C642.794 521.403 645.63 529.645 645.63 539.925L645.541 604H627.019ZM512.252 604V508.287H528.736V535.937H530.863V604H512.252ZM569.68 604L569.768 544.711C569.768 537.739 567.996 532.274 564.451 528.316C560.965 524.357 556.268 522.378 550.36 522.378C544.511 522.378 539.784 524.387 536.18 528.404C532.635 532.422 530.863 537.68 530.863 544.179L522 538.507C522 532.245 523.507 526.661 526.52 521.758C529.533 516.854 533.61 512.984 538.75 510.148C543.89 507.312 549.71 505.894 556.209 505.894C563.003 505.894 568.793 507.341 573.579 510.237C578.365 513.072 581.998 517.061 584.48 522.201C587.02 527.341 588.291 533.308 588.291 540.103L588.202 604H569.68ZM697.475 606.659C687.962 606.659 679.602 604.591 672.394 600.455C665.245 596.26 659.662 590.441 655.644 582.996C651.686 575.493 649.707 566.808 649.707 556.941C649.707 546.483 651.656 537.414 655.556 529.734C659.514 522.053 665.009 516.115 672.04 511.92C679.07 507.726 687.253 505.628 696.588 505.628C706.337 505.628 714.638 507.903 721.491 512.452C728.345 516.942 733.456 523.353 736.823 531.683C740.25 540.014 741.609 549.91 740.9 561.372H722.378V554.637C722.26 543.529 720.133 535.317 715.997 530C711.92 524.682 705.687 522.023 697.297 522.023C688.021 522.023 681.05 524.948 676.382 530.797C671.715 536.646 669.381 545.095 669.381 556.143C669.381 566.66 671.715 574.813 676.382 580.603C681.05 586.334 687.785 589.2 696.588 589.2C702.378 589.2 707.371 587.9 711.566 585.3C715.82 582.642 719.128 578.861 721.491 573.957L739.659 579.717C735.937 588.284 730.295 594.931 722.732 599.657C715.17 604.325 706.75 606.659 697.475 606.659ZM663.355 561.372V546.927H731.683V561.372H663.355Z" fill="black"/>
<path d="M111.76 693V646.92H130.384C130.832 646.92 131.387 646.941 132.048 646.984C132.709 647.005 133.339 647.069 133.936 647.176C136.496 647.581 138.629 648.456 140.336 649.8C142.064 651.144 143.355 652.84 144.208 654.888C145.061 656.936 145.488 659.197 145.488 661.672C145.488 665.341 144.549 668.509 142.672 671.176C140.795 673.821 137.979 675.475 134.224 676.136L131.504 676.456H118.448V693H111.76ZM138.704 693L129.616 674.248L136.368 672.52L146.352 693H138.704ZM118.448 670.12H130.128C130.555 670.12 131.024 670.099 131.536 670.056C132.069 670.013 132.571 669.939 133.04 669.832C134.405 669.512 135.504 668.925 136.336 668.072C137.168 667.197 137.765 666.195 138.128 665.064C138.491 663.933 138.672 662.803 138.672 661.672C138.672 660.541 138.491 659.421 138.128 658.312C137.765 657.181 137.168 656.189 136.336 655.336C135.504 654.461 134.405 653.864 133.04 653.544C132.571 653.416 132.069 653.331 131.536 653.288C131.024 653.245 130.555 653.224 130.128 653.224H118.448V670.12ZM166.793 693.96C163.358 693.96 160.34 693.213 157.737 691.72C155.156 690.205 153.14 688.104 151.689 685.416C150.26 682.707 149.545 679.571 149.545 676.008C149.545 672.232 150.249 668.957 151.657 666.184C153.086 663.411 155.07 661.267 157.609 659.752C160.148 658.237 163.102 657.48 166.473 657.48C169.993 657.48 172.99 658.301 175.465 659.944C177.94 661.565 179.785 663.88 181.001 666.888C182.238 669.896 182.729 673.469 182.473 677.608H175.785V675.176C175.742 671.165 174.974 668.2 173.481 666.28C172.009 664.36 169.758 663.4 166.729 663.4C163.38 663.4 160.862 664.456 159.177 666.568C157.492 668.68 156.649 671.731 156.649 675.72C156.649 679.517 157.492 682.461 159.177 684.552C160.862 686.621 163.294 687.656 166.473 687.656C168.564 687.656 170.366 687.187 171.881 686.248C173.417 685.288 174.612 683.923 175.465 682.152L182.025 684.232C180.681 687.325 178.644 689.725 175.913 691.432C173.182 693.117 170.142 693.96 166.793 693.96ZM154.473 677.608V672.392H179.145V677.608H154.473ZM200.949 693.928C196.746 693.928 193.322 693 190.677 691.144C188.031 689.288 186.41 686.675 185.813 683.304L192.661 682.248C193.087 684.04 194.069 685.459 195.605 686.504C197.162 687.528 199.093 688.04 201.397 688.04C203.487 688.04 205.119 687.613 206.293 686.76C207.487 685.907 208.085 684.733 208.085 683.24C208.085 682.365 207.871 681.661 207.445 681.128C207.039 680.573 206.175 680.051 204.853 679.56C203.53 679.069 201.514 678.461 198.805 677.736C195.839 676.968 193.482 676.147 191.733 675.272C190.005 674.376 188.767 673.341 188.021 672.168C187.295 670.973 186.933 669.533 186.933 667.848C186.933 665.757 187.487 663.933 188.597 662.376C189.706 660.819 191.263 659.613 193.269 658.76C195.295 657.907 197.663 657.48 200.373 657.48C203.018 657.48 205.375 657.896 207.445 658.728C209.514 659.56 211.189 660.744 212.469 662.28C213.749 663.795 214.517 665.576 214.773 667.624L207.925 668.872C207.69 667.208 206.911 665.896 205.589 664.936C204.266 663.976 202.549 663.453 200.437 663.368C198.41 663.283 196.767 663.624 195.509 664.392C194.25 665.139 193.621 666.173 193.621 667.496C193.621 668.264 193.855 668.915 194.325 669.448C194.815 669.981 195.754 670.493 197.141 670.984C198.527 671.475 200.575 672.061 203.285 672.744C206.186 673.491 208.49 674.323 210.197 675.24C211.903 676.136 213.119 677.213 213.845 678.472C214.591 679.709 214.965 681.213 214.965 682.984C214.965 686.397 213.717 689.075 211.221 691.016C208.746 692.957 205.322 693.928 200.949 693.928ZM235.453 693.96C232.018 693.96 229 693.213 226.397 691.72C223.816 690.205 221.8 688.104 220.349 685.416C218.92 682.707 218.205 679.571 218.205 676.008C218.205 672.232 218.909 668.957 220.317 666.184C221.746 663.411 223.73 661.267 226.269 659.752C228.808 658.237 231.762 657.48 235.133 657.48C238.653 657.48 241.65 658.301 244.125 659.944C246.6 661.565 248.445 663.88 249.661 666.888C250.898 669.896 251.389 673.469 251.133 677.608H244.445V675.176C244.402 671.165 243.634 668.2 242.141 666.28C240.669 664.36 238.418 663.4 235.389 663.4C232.04 663.4 229.522 664.456 227.837 666.568C226.152 668.68 225.309 671.731 225.309 675.72C225.309 679.517 226.152 682.461 227.837 684.552C229.522 686.621 231.954 687.656 235.133 687.656C237.224 687.656 239.026 687.187 240.541 686.248C242.077 685.288 243.272 683.923 244.125 682.152L250.685 684.232C249.341 687.325 247.304 689.725 244.573 691.432C241.842 693.117 238.802 693.96 235.453 693.96ZM223.133 677.608V672.392H247.805V677.608H223.133ZM265.528 693.96C262.968 693.96 260.824 693.491 259.096 692.552C257.368 691.592 256.056 690.333 255.16 688.776C254.285 687.197 253.848 685.469 253.848 683.592C253.848 681.843 254.157 680.307 254.776 678.984C255.394 677.661 256.312 676.541 257.528 675.624C258.744 674.685 260.237 673.928 262.008 673.352C263.544 672.904 265.282 672.509 267.224 672.168C269.165 671.827 271.202 671.507 273.336 671.208C275.49 670.909 277.624 670.611 279.736 670.312L277.304 671.656C277.346 668.947 276.77 666.941 275.576 665.64C274.402 664.317 272.376 663.656 269.496 663.656C267.682 663.656 266.018 664.083 264.504 664.936C262.989 665.768 261.933 667.155 261.336 669.096L255.096 667.176C255.949 664.211 257.57 661.853 259.96 660.104C262.37 658.355 265.57 657.48 269.56 657.48C272.653 657.48 275.341 658.013 277.624 659.08C279.928 660.125 281.613 661.789 282.68 664.072C283.234 665.203 283.576 666.397 283.704 667.656C283.832 668.915 283.896 670.269 283.896 671.72V693H277.976V685.096L279.128 686.12C277.698 688.765 275.874 690.739 273.656 692.04C271.458 693.32 268.749 693.96 265.528 693.96ZM266.712 688.488C268.61 688.488 270.242 688.157 271.608 687.496C272.973 686.813 274.072 685.949 274.904 684.904C275.736 683.859 276.28 682.771 276.536 681.64C276.898 680.616 277.101 679.464 277.144 678.184C277.208 676.904 277.24 675.88 277.24 675.112L279.416 675.912C277.304 676.232 275.384 676.52 273.656 676.776C271.928 677.032 270.36 677.288 268.952 677.544C267.565 677.779 266.328 678.067 265.24 678.408C264.322 678.728 263.501 679.112 262.776 679.56C262.072 680.008 261.506 680.552 261.08 681.192C260.674 681.832 260.472 682.611 260.472 683.528C260.472 684.424 260.696 685.256 261.144 686.024C261.592 686.771 262.274 687.368 263.192 687.816C264.109 688.264 265.282 688.488 266.712 688.488ZM290.285 693V658.44H296.237V666.824L295.405 665.736C295.832 664.627 296.386 663.613 297.069 662.696C297.752 661.757 298.541 660.989 299.437 660.392C300.312 659.752 301.282 659.261 302.349 658.92C303.437 658.557 304.546 658.344 305.677 658.28C306.808 658.195 307.896 658.248 308.941 658.44V664.712C307.81 664.413 306.552 664.328 305.165 664.456C303.8 664.584 302.541 665.021 301.389 665.768C300.301 666.472 299.437 667.325 298.797 668.328C298.178 669.331 297.73 670.451 297.453 671.688C297.176 672.904 297.037 674.195 297.037 675.56V693H290.285ZM327.274 693.96C323.733 693.96 320.725 693.171 318.25 691.592C315.775 690.013 313.877 687.848 312.554 685.096C311.253 682.344 310.591 679.219 310.57 675.72C310.591 672.157 311.274 669.011 312.618 666.28C313.962 663.528 315.882 661.373 318.378 659.816C320.874 658.259 323.871 657.48 327.37 657.48C331.146 657.48 334.367 658.419 337.034 660.296C339.722 662.173 341.493 664.744 342.346 668.008L335.69 669.928C335.029 667.987 333.941 666.483 332.426 665.416C330.933 664.328 329.215 663.784 327.274 663.784C325.077 663.784 323.274 664.307 321.866 665.352C320.458 666.376 319.413 667.784 318.73 669.576C318.047 671.368 317.695 673.416 317.674 675.72C317.695 679.283 318.506 682.163 320.106 684.36C321.727 686.557 324.117 687.656 327.274 687.656C329.429 687.656 331.167 687.165 332.49 686.184C333.834 685.181 334.858 683.752 335.562 681.896L342.346 683.496C341.215 686.867 339.349 689.459 336.746 691.272C334.143 693.064 330.986 693.96 327.274 693.96ZM371.201 693V676.008C371.201 674.664 371.084 673.288 370.849 671.88C370.636 670.451 370.209 669.128 369.569 667.912C368.95 666.696 368.065 665.715 366.913 664.968C365.782 664.221 364.3 663.848 362.465 663.848C361.27 663.848 360.14 664.051 359.073 664.456C358.006 664.84 357.068 665.469 356.257 666.344C355.468 667.219 354.838 668.371 354.369 669.8C353.921 671.229 353.697 672.968 353.697 675.016L349.537 673.448C349.537 670.312 350.124 667.549 351.297 665.16C352.47 662.749 354.156 660.872 356.353 659.528C358.55 658.184 361.206 657.512 364.321 657.512C366.71 657.512 368.716 657.896 370.337 658.664C371.958 659.432 373.27 660.445 374.273 661.704C375.297 662.941 376.076 664.296 376.609 665.768C377.142 667.24 377.505 668.68 377.697 670.088C377.889 671.496 377.985 672.733 377.985 673.8V693H371.201ZM346.913 693V646.92H352.897V671.784H353.697V693H346.913ZM395.293 693V646.92H422.589V653.608H401.981V666.6H418.749V673.32H401.981V693H395.293ZM440.505 693.96C437.049 693.96 434.052 693.181 431.513 691.624C428.975 690.067 427.012 687.923 425.625 685.192C424.26 682.44 423.577 679.272 423.577 675.688C423.577 672.083 424.281 668.915 425.689 666.184C427.097 663.432 429.071 661.299 431.609 659.784C434.148 658.248 437.113 657.48 440.505 657.48C443.961 657.48 446.959 658.259 449.497 659.816C452.036 661.373 453.999 663.517 455.385 666.248C456.772 668.979 457.465 672.125 457.465 675.688C457.465 679.293 456.761 682.472 455.353 685.224C453.967 687.955 452.004 690.099 449.465 691.656C446.927 693.192 443.94 693.96 440.505 693.96ZM440.505 687.656C443.812 687.656 446.276 686.547 447.897 684.328C449.54 682.088 450.361 679.208 450.361 675.688C450.361 672.083 449.529 669.203 447.865 667.048C446.223 664.872 443.769 663.784 440.505 663.784C438.265 663.784 436.42 664.296 434.969 665.32C433.519 666.323 432.441 667.72 431.737 669.512C431.033 671.283 430.681 673.341 430.681 675.688C430.681 679.315 431.513 682.216 433.177 684.392C434.841 686.568 437.284 687.656 440.505 687.656ZM475.602 693.928C473.212 693.928 471.207 693.544 469.586 692.776C467.964 692.008 466.642 691.005 465.618 689.768C464.615 688.509 463.847 687.144 463.314 685.672C462.78 684.2 462.418 682.76 462.226 681.352C462.034 679.944 461.938 678.707 461.938 677.64V658.44H468.722V675.432C468.722 676.776 468.828 678.163 469.042 679.592C469.276 681 469.703 682.312 470.322 683.528C470.962 684.744 471.847 685.725 472.978 686.472C474.13 687.219 475.623 687.592 477.458 687.592C478.652 687.592 479.783 687.4 480.85 687.016C481.916 686.611 482.844 685.971 483.634 685.096C484.444 684.221 485.074 683.069 485.522 681.64C485.991 680.211 486.226 678.472 486.226 676.424L490.386 677.992C490.386 681.128 489.799 683.901 488.626 686.312C487.452 688.701 485.767 690.568 483.57 691.912C481.372 693.256 478.716 693.928 475.602 693.928ZM487.026 693V683.016H486.226V658.44H492.978V693H487.026ZM524.288 693V676.008C524.288 674.664 524.171 673.288 523.936 671.88C523.723 670.451 523.296 669.128 522.656 667.912C522.038 666.696 521.152 665.715 520 664.968C518.87 664.221 517.387 663.848 515.552 663.848C514.358 663.848 513.227 664.051 512.16 664.456C511.094 664.84 510.155 665.469 509.344 666.344C508.555 667.219 507.926 668.371 507.456 669.8C507.008 671.229 506.784 672.968 506.784 675.016L502.624 673.448C502.624 670.312 503.211 667.549 504.384 665.16C505.558 662.749 507.243 660.872 509.44 659.528C511.638 658.184 514.294 657.512 517.408 657.512C519.798 657.512 521.803 657.896 523.424 658.664C525.046 659.432 526.358 660.445 527.36 661.704C528.384 662.941 529.163 664.296 529.696 665.768C530.23 667.24 530.592 668.68 530.784 670.088C530.976 671.496 531.072 672.733 531.072 673.8V693H524.288ZM500 693V658.44H505.984V668.424H506.784V693H500ZM550.778 693.96C547.557 693.96 544.773 693.16 542.426 691.56C540.101 689.96 538.298 687.784 537.018 685.032C535.759 682.259 535.13 679.144 535.13 675.688C535.13 672.211 535.77 669.107 537.05 666.376C538.33 663.624 540.143 661.459 542.49 659.88C544.858 658.28 547.663 657.48 550.906 657.48C554.17 657.48 556.911 658.28 559.13 659.88C561.37 661.459 563.055 663.624 564.186 666.376C565.338 669.128 565.914 672.232 565.914 675.688C565.914 679.144 565.338 682.248 564.186 685C563.034 687.752 561.338 689.939 559.098 691.56C556.858 693.16 554.085 693.96 550.778 693.96ZM551.706 687.912C553.903 687.912 555.695 687.389 557.082 686.344C558.469 685.299 559.482 683.859 560.122 682.024C560.762 680.189 561.082 678.077 561.082 675.688C561.082 673.299 560.751 671.187 560.09 669.352C559.45 667.517 558.447 666.088 557.082 665.064C555.738 664.04 554.021 663.528 551.93 663.528C549.711 663.528 547.887 664.072 546.458 665.16C545.029 666.248 543.962 667.709 543.258 669.544C542.575 671.379 542.234 673.427 542.234 675.688C542.234 677.971 542.575 680.04 543.258 681.896C543.962 683.731 545.007 685.192 546.394 686.28C547.802 687.368 549.573 687.912 551.706 687.912ZM561.082 693V668.136H560.314V646.92H567.034V693H561.082ZM583.827 693.96C581.267 693.96 579.123 693.491 577.395 692.552C575.667 691.592 574.355 690.333 573.459 688.776C572.585 687.197 572.147 685.469 572.147 683.592C572.147 681.843 572.457 680.307 573.075 678.984C573.694 677.661 574.611 676.541 575.827 675.624C577.043 674.685 578.537 673.928 580.307 673.352C581.843 672.904 583.582 672.509 585.523 672.168C587.465 671.827 589.502 671.507 591.635 671.208C593.79 670.909 595.923 670.611 598.035 670.312L595.603 671.656C595.646 668.947 595.07 666.941 593.875 665.64C592.702 664.317 590.675 663.656 587.795 663.656C585.982 663.656 584.318 664.083 582.803 664.936C581.289 665.768 580.233 667.155 579.635 669.096L573.395 667.176C574.249 664.211 575.87 661.853 578.259 660.104C580.67 658.355 583.87 657.48 587.859 657.48C590.953 657.48 593.641 658.013 595.923 659.08C598.227 660.125 599.913 661.789 600.979 664.072C601.534 665.203 601.875 666.397 602.003 667.656C602.131 668.915 602.195 670.269 602.195 671.72V693H596.275V685.096L597.427 686.12C595.998 688.765 594.174 690.739 591.955 692.04C589.758 693.32 587.049 693.96 583.827 693.96ZM585.011 688.488C586.91 688.488 588.542 688.157 589.907 687.496C591.273 686.813 592.371 685.949 593.203 684.904C594.035 683.859 594.579 682.771 594.835 681.64C595.198 680.616 595.401 679.464 595.443 678.184C595.507 676.904 595.539 675.88 595.539 675.112L597.715 675.912C595.603 676.232 593.683 676.52 591.955 676.776C590.227 677.032 588.659 677.288 587.251 677.544C585.865 677.779 584.627 678.067 583.539 678.408C582.622 678.728 581.801 679.112 581.075 679.56C580.371 680.008 579.806 680.552 579.379 681.192C578.974 681.832 578.771 682.611 578.771 683.528C578.771 684.424 578.995 685.256 579.443 686.024C579.891 686.771 580.574 687.368 581.491 687.816C582.409 688.264 583.582 688.488 585.011 688.488ZM628.361 693C626.185 693.427 624.052 693.608 621.961 693.544C619.87 693.48 618.004 693.075 616.361 692.328C614.718 691.581 613.481 690.408 612.649 688.808C611.902 687.379 611.497 685.928 611.433 684.456C611.39 682.963 611.369 681.277 611.369 679.4V648.84H618.089V679.08C618.089 680.467 618.1 681.672 618.121 682.696C618.164 683.72 618.388 684.584 618.793 685.288C619.561 686.611 620.777 687.368 622.441 687.56C624.126 687.731 626.1 687.656 628.361 687.336V693ZM604.745 663.816V658.44H628.361V663.816H604.745ZM634.368 652.776V646.28H641.056V652.776H634.368ZM634.368 693V658.44H641.056V693H634.368ZM663.753 693.96C660.297 693.96 657.3 693.181 654.761 691.624C652.222 690.067 650.26 687.923 648.873 685.192C647.508 682.44 646.825 679.272 646.825 675.688C646.825 672.083 647.529 668.915 648.937 666.184C650.345 663.432 652.318 661.299 654.857 659.784C657.396 658.248 660.361 657.48 663.753 657.48C667.209 657.48 670.206 658.259 672.745 659.816C675.284 661.373 677.246 663.517 678.633 666.248C680.02 668.979 680.713 672.125 680.713 675.688C680.713 679.293 680.009 682.472 678.601 685.224C677.214 687.955 675.252 690.099 672.713 691.656C670.174 693.192 667.188 693.96 663.753 693.96ZM663.753 687.656C667.06 687.656 669.524 686.547 671.145 684.328C672.788 682.088 673.609 679.208 673.609 675.688C673.609 672.083 672.777 669.203 671.113 667.048C669.47 664.872 667.017 663.784 663.753 663.784C661.513 663.784 659.668 664.296 658.217 665.32C656.766 666.323 655.689 667.72 654.985 669.512C654.281 671.283 653.929 673.341 653.929 675.688C653.929 679.315 654.761 682.216 656.425 684.392C658.089 686.568 660.532 687.656 663.753 687.656ZM710.081 693V676.008C710.081 674.664 709.964 673.288 709.729 671.88C709.516 670.451 709.089 669.128 708.449 667.912C707.83 666.696 706.945 665.715 705.793 664.968C704.662 664.221 703.18 663.848 701.345 663.848C700.15 663.848 699.02 664.051 697.953 664.456C696.886 664.84 695.948 665.469 695.137 666.344C694.348 667.219 693.718 668.371 693.249 669.8C692.801 671.229 692.577 672.968 692.577 675.016L688.417 673.448C688.417 670.312 689.004 667.549 690.177 665.16C691.35 662.749 693.036 660.872 695.233 659.528C697.43 658.184 700.086 657.512 703.201 657.512C705.59 657.512 707.596 657.896 709.217 658.664C710.838 659.432 712.15 660.445 713.153 661.704C714.177 662.941 714.956 664.296 715.489 665.768C716.022 667.24 716.385 668.68 716.577 670.088C716.769 671.496 716.865 672.733 716.865 673.8V693H710.081ZM685.793 693V658.44H691.777V668.424H692.577V693H685.793Z" fill="black"/>
<path d="M502.05 101.252C454.045 105.821 416.493 146.249 416.493 195.467C416.493 146.249 378.941 105.821 330.936 101.252C334.702 90.5204 339.389 80.2419 344.923 70.5035C361.304 41.6973 385.029 17.6362 413.558 0.860519C415.354 -0.205297 417.617 -0.205297 419.413 0.860519C447.956 17.6216 471.682 41.6973 488.048 70.5035C493.582 80.2419 498.269 90.5204 502.035 101.252H502.05Z" fill="#8554C8"/>
<path d="M416.492 195.467V405.097C416.492 396.848 415.427 388.847 413.441 381.211C400.33 320.854 346.645 275.651 282.375 275.651C281.528 275.651 280.681 275.666 279.849 275.68C279.046 275.695 278.258 275.724 277.469 275.753C274.155 275.885 270.972 276.133 267.979 276.469C267.235 276.542 266.505 276.63 265.775 276.732C265.483 276.761 265.205 276.805 264.928 276.834C264.008 276.965 263.117 277.082 262.241 277.213C262.022 277.257 261.803 277.286 261.584 277.316C260.913 277.418 260.256 277.52 259.613 277.637C256.81 278.119 254.255 278.63 252.05 279.126C251.262 279.301 250.517 279.477 249.816 279.652C249.787 279.652 249.758 279.666 249.729 279.666C246.137 280.542 242.633 277.9 242.531 274.22C242.268 266.015 242.414 257.503 242.297 248.553C242.195 240.173 242.297 236.099 242.297 229.967V108.742C242.297 104.376 245.845 100.828 250.225 100.828H321.869C324.92 100.828 327.957 100.974 330.935 101.252C378.941 105.822 416.492 146.25 416.492 195.467Z" fill="#ECDEFF"/>
<path d="M416.492 409.696C382.051 413.375 358.865 406.075 343.929 398.541C310.466 381.649 281.032 344.739 257.277 321.277C255.321 319.335 253.394 317.481 251.496 315.743C240.224 305.363 230.369 298.939 222.149 300.53C220.558 300.837 215.696 302.092 215.068 300.807C213.885 298.355 228.325 287.477 242.867 281.564C242.867 281.564 242.881 281.564 242.881 281.55C242.984 281.52 245.509 280.688 249.729 279.666C249.758 279.666 249.787 279.652 249.817 279.652C250.517 279.476 251.262 279.301 252.05 279.126C254.255 278.63 256.81 278.119 259.613 277.637C260.256 277.535 260.913 277.432 261.584 277.316C261.803 277.286 262.022 277.257 262.241 277.213C263.117 277.082 264.008 276.965 264.928 276.834C265.205 276.805 265.483 276.761 265.775 276.732C266.505 276.629 267.235 276.542 267.979 276.469C270.972 276.133 274.155 275.885 277.469 275.753C278.258 275.724 279.046 275.695 279.849 275.68C280.681 275.68 281.528 275.651 282.375 275.651C346.645 275.651 400.33 320.853 413.441 381.211C415.427 390.394 416.492 399.928 416.492 409.696Z" fill="#00A085"/>
<path d="M590.688 248.32C590.556 257.124 590.527 266.015 590.045 274.761C589.841 278.396 586.395 280.951 582.862 280.104C575.693 278.396 563.911 276.191 550.625 276.191C487.274 276.191 434.188 320.123 420.143 379.181C417.792 387.43 416.507 396.118 416.493 405.111V195.481C416.493 146.264 454.044 105.836 502.05 101.266C505.028 100.989 508.065 100.843 511.117 100.843H584.848C588.074 100.843 590.688 103.456 590.688 106.683V229.982C590.688 236.114 590.775 242.334 590.688 248.334V248.32Z" fill="#DBC3FB"/>
<path d="M617.932 301.333C617.304 302.618 612.442 301.362 610.851 301.056C602.675 299.464 592.907 305.801 581.723 316.065C578.774 318.766 575.737 321.744 572.613 324.913C549.413 348.419 521.089 382.905 489.07 399.067C474.134 406.601 450.949 413.901 416.493 410.222C416.507 399.534 417.777 389.139 420.143 379.167C434.188 320.109 487.274 276.177 550.625 276.177C570.087 276.177 586.352 280.907 589.549 281.9C589.929 282.017 590.133 282.09 590.133 282.09C604.675 288.003 619.114 298.88 617.932 301.333Z" fill="#00D3B0"/>
</svg>
