<svg width="1455" height="341" viewBox="0 0 1455 341" fill="none" xmlns="http://www.w3.org/2000/svg">
<path d="M384.949 227.747V42.1994H503.493V67.5833H411.879V119.64H488.031V145.024H411.879V202.363H503.493V227.747H384.949ZM571.676 231.613C558.705 231.613 547.495 228.391 538.046 221.949C528.683 215.506 521.424 206.744 516.27 195.663C511.202 184.496 508.667 171.954 508.667 158.038C508.667 144.036 511.245 131.537 516.399 120.542C521.553 109.46 528.854 100.741 538.304 94.3846C547.839 87.942 559.135 84.7207 572.192 84.7207C585.335 84.7207 596.373 87.942 605.307 94.3846C614.327 100.741 621.113 109.46 625.666 120.542C630.304 131.623 632.624 144.122 632.624 158.038C632.624 171.954 630.304 184.453 625.666 195.534C621.027 206.615 614.198 215.42 605.178 221.949C596.158 228.391 584.991 231.613 571.676 231.613ZM575.413 207.26C584.261 207.26 591.477 205.155 597.06 200.946C602.644 196.737 606.724 190.938 609.301 183.551C611.878 176.163 613.167 167.659 613.167 158.038C613.167 148.417 611.835 139.913 609.172 132.525C606.595 125.137 602.558 119.382 597.06 115.259C591.649 111.135 584.733 109.074 576.315 109.074C567.381 109.074 560.037 111.264 554.281 115.645C548.526 120.026 544.231 125.911 541.396 133.298C538.647 140.686 537.273 148.932 537.273 158.038C537.273 167.229 538.647 175.562 541.396 183.035C544.231 190.423 548.44 196.307 554.024 200.688C559.693 205.069 566.823 207.26 575.413 207.26ZM613.167 227.747V127.629H610.074V42.1994H637.133V227.747H613.167ZM655.147 227.747V42.1994H728.077C739.846 42.1994 749.724 44.6046 757.713 49.4151C765.702 54.2256 771.715 60.4535 775.753 68.0987C779.79 75.6581 781.809 83.6469 781.809 92.0653C781.809 102.288 779.275 111.05 774.206 118.351C769.224 125.653 762.481 130.635 753.977 133.298L753.719 126.984C765.573 129.905 774.679 135.617 781.036 144.122C787.392 152.54 790.571 162.376 790.571 173.629C790.571 184.539 788.38 194.031 783.999 202.105C779.704 210.18 773.39 216.494 765.058 221.047C756.811 225.514 746.804 227.747 735.035 227.747H655.147ZM682.463 202.105H730.912C737.011 202.105 742.466 200.946 747.276 198.626C752.173 196.307 755.995 193 758.744 188.705C761.579 184.324 762.996 179.127 762.996 173.114C762.996 167.53 761.751 162.505 759.26 158.038C756.854 153.485 753.332 149.92 748.694 147.343C744.141 144.68 738.772 143.349 732.587 143.349H682.463V202.105ZM682.463 117.965H727.691C732.673 117.965 737.14 116.977 741.091 115.001C745.129 112.939 748.307 110.019 750.626 106.239C753.032 102.374 754.234 97.7348 754.234 92.323C754.234 85.1073 751.829 79.18 747.019 74.5414C742.208 69.9027 735.765 67.5833 727.691 67.5833H682.463V117.965ZM800.75 227.747V38.3338H827.68V227.747H800.75ZM900.778 231.484C891.157 231.484 883.082 229.938 876.554 226.845C870.025 223.753 864.699 219.715 860.576 214.733C856.539 209.665 853.446 204.167 851.299 198.24C849.151 192.313 847.691 186.514 846.918 180.845C846.144 175.175 845.758 170.193 845.758 165.898V88.5863H873.075V157.007C873.075 162.419 873.504 168.002 874.363 173.758C875.308 179.427 877.026 184.71 879.517 189.607C882.094 194.503 885.659 198.455 890.212 201.461C894.851 204.468 900.864 205.971 908.251 205.971C913.062 205.971 917.615 205.198 921.91 203.652C926.205 202.02 929.942 199.442 933.12 195.92C936.384 192.399 938.918 187.76 940.722 182.004C942.612 176.249 943.557 169.248 943.557 161.001L960.308 167.315C960.308 179.943 957.945 191.11 953.221 200.817C948.496 210.438 941.71 217.954 932.862 223.366C924.014 228.778 913.32 231.484 900.778 231.484ZM946.778 227.747V187.545H943.557V88.5863H970.745V227.747H946.778ZM1155.58 227.747L1155.71 141.029C1155.71 130.979 1153.13 123.162 1147.98 117.578C1142.82 111.909 1136.04 109.074 1127.62 109.074C1122.46 109.074 1117.74 110.276 1113.45 112.682C1109.24 115.001 1105.8 118.523 1103.14 123.248C1100.56 127.886 1099.27 133.728 1099.27 140.772L1086.26 134.2C1086.09 124.407 1088.15 115.817 1092.44 108.43C1096.82 101.042 1102.75 95.3296 1110.22 91.2922C1117.7 87.1689 1126.07 85.1073 1135.35 85.1073C1150.38 85.1073 1162.02 89.6171 1170.27 98.6368C1178.52 107.656 1182.64 119.64 1182.64 134.587L1182.51 227.747H1155.58ZM988.716 227.747V88.5863H1012.68V128.788H1015.77V227.747H988.716ZM1072.21 227.747L1072.34 141.545C1072.34 131.408 1069.76 123.462 1064.61 117.707C1059.54 111.952 1052.71 109.074 1044.12 109.074C1035.62 109.074 1028.75 111.995 1023.51 117.836C1018.35 123.677 1015.77 131.322 1015.77 140.772L1002.89 132.525C1002.89 123.419 1005.08 115.302 1009.46 108.172C1013.84 101.042 1019.77 95.4155 1027.24 91.2922C1034.72 87.1689 1043.18 85.1073 1052.63 85.1073C1062.51 85.1073 1070.92 87.2119 1077.88 91.421C1084.84 95.5443 1090.12 101.343 1093.73 108.816C1097.42 116.29 1099.27 124.966 1099.27 134.844L1099.14 227.747H1072.21ZM1258.02 231.613C1244.19 231.613 1232.03 228.606 1221.55 222.593C1211.16 216.494 1203.04 208.033 1197.2 197.209C1191.44 186.299 1188.57 173.672 1188.57 159.326C1188.57 144.122 1191.4 130.936 1197.07 119.769C1202.83 108.601 1210.81 99.9683 1221.04 93.8692C1231.26 87.7702 1243.16 84.7207 1256.73 84.7207C1270.9 84.7207 1282.97 88.0279 1292.94 94.6424C1302.9 101.171 1310.33 110.491 1315.23 122.603C1320.21 134.716 1322.19 149.104 1321.16 165.769H1294.23V155.976C1294.05 139.827 1290.96 127.886 1284.95 120.155C1279.02 112.424 1269.96 108.558 1257.76 108.558C1244.27 108.558 1234.14 112.811 1227.35 121.315C1220.56 129.819 1217.17 142.103 1217.17 158.167C1217.17 173.457 1220.56 185.312 1227.35 193.73C1234.14 202.062 1243.93 206.229 1256.73 206.229C1265.15 206.229 1272.41 204.339 1278.51 200.559C1284.69 196.694 1289.5 191.196 1292.94 184.066L1319.35 192.441C1313.94 204.897 1305.74 214.561 1294.74 221.433C1283.75 228.22 1271.5 231.613 1258.02 231.613ZM1208.41 165.769V144.766H1307.75V165.769H1208.41Z" fill="black"/>
<path d="M227.196 79.9888C189.249 83.6012 159.565 115.559 159.565 154.464C159.565 115.559 129.881 83.6012 91.9338 79.9888C94.9115 71.506 98.6162 63.381 102.99 55.6831C115.939 32.9124 134.694 13.8925 157.245 0.631756C158.665 -0.210748 160.454 -0.210748 161.873 0.631756C184.436 13.881 203.191 32.9124 216.128 55.6831C220.502 63.381 224.207 71.506 227.185 79.9888H227.196Z" fill="#8554C8"/>
<path d="M159.565 154.464V320.172C159.565 313.651 158.722 307.327 157.153 301.291C146.789 253.58 104.352 217.848 53.5477 217.848C52.8783 217.848 52.2089 217.86 51.5511 217.871C50.9163 217.883 50.2931 217.906 49.6699 217.929C47.05 218.033 44.5341 218.229 42.1681 218.494C41.5795 218.552 41.0024 218.621 40.4254 218.702C40.1946 218.725 39.9753 218.76 39.756 218.783C39.0289 218.887 38.3249 218.979 37.6324 219.083C37.4593 219.118 37.2862 219.141 37.1131 219.164C36.5822 219.245 36.0628 219.325 35.555 219.418C33.3391 219.799 31.3194 220.203 29.5767 220.595C28.9535 220.733 28.3649 220.872 27.8109 221.01C27.7878 221.01 27.7648 221.022 27.7417 221.022C24.9025 221.714 22.1327 219.625 22.0519 216.717C21.8441 210.231 21.9595 203.502 21.8672 196.428C21.7864 189.803 21.8672 186.583 21.8672 181.736V85.9096C21.8672 82.4588 24.6717 79.6543 28.1341 79.6543H84.7665C87.1786 79.6543 89.5792 79.7697 91.9336 79.989C129.881 83.6014 159.565 115.559 159.565 154.464Z" fill="#ECDEFF"/>
<path d="M159.565 323.807C132.339 326.716 114.012 320.945 102.205 314.99C75.753 301.637 52.486 272.461 33.7086 253.914C32.162 252.379 30.6386 250.913 29.1383 249.54C20.2285 241.334 12.4382 236.256 5.94054 237.514C4.68255 237.756 0.839337 238.749 0.343067 237.733C-0.591766 235.794 10.8224 227.196 22.3174 222.522C22.3174 222.522 22.329 222.522 22.329 222.511C22.4098 222.488 24.4064 221.83 27.7418 221.022C27.7649 221.022 27.7879 221.01 27.811 221.01C28.365 220.872 28.9536 220.733 29.5768 220.595C31.3195 220.202 33.3392 219.798 35.5551 219.418C36.0629 219.337 36.5823 219.256 37.1132 219.164C37.2863 219.141 37.4594 219.118 37.6325 219.083C38.325 218.979 39.029 218.887 39.7561 218.783C39.9754 218.76 40.1947 218.725 40.4255 218.702C41.0026 218.621 41.5796 218.552 42.1682 218.494C44.5342 218.229 47.0501 218.033 49.67 217.929C50.2932 217.906 50.9164 217.883 51.5512 217.871C52.209 217.871 52.8784 217.848 53.5478 217.848C104.352 217.848 146.789 253.579 157.153 301.291C158.722 308.55 159.565 316.086 159.565 323.807Z" fill="#00A085"/>
<path d="M297.263 196.243C297.159 203.202 297.136 210.231 296.755 217.144C296.593 220.018 293.87 222.038 291.077 221.368C285.41 220.018 276.096 218.275 265.594 218.275C215.517 218.275 173.553 253.003 162.45 299.687C160.592 306.207 159.577 313.074 159.565 320.184V154.476C159.565 115.57 189.249 83.613 227.196 80.0006C229.551 79.7813 231.951 79.6659 234.363 79.6659H292.646C295.197 79.6659 297.263 81.7318 297.263 84.2824V181.747C297.263 186.595 297.332 191.511 297.263 196.255V196.243Z" fill="#DBC3FB"/>
<path d="M318.799 238.149C318.302 239.165 314.459 238.172 313.201 237.93C306.738 236.672 299.017 241.681 290.176 249.794C287.845 251.929 285.445 254.284 282.975 256.788C264.636 275.369 242.246 302.63 216.936 315.406C205.13 321.361 186.802 327.131 159.565 324.223C159.577 315.775 160.581 307.558 162.45 299.675C173.553 252.991 215.517 218.264 265.594 218.264C280.978 218.264 293.835 222.003 296.363 222.788C296.663 222.88 296.824 222.938 296.824 222.938C308.319 227.612 319.733 236.21 318.799 238.149Z" fill="#00D3B0"/>
<path d="M387.106 309.376V266.926H404.262C404.675 266.926 405.186 266.946 405.795 266.985C406.405 267.005 406.984 267.064 407.535 267.162C409.893 267.536 411.858 268.341 413.43 269.58C415.022 270.818 416.211 272.38 416.997 274.267C417.784 276.153 418.177 278.237 418.177 280.516C418.177 283.897 417.312 286.815 415.582 289.272C413.853 291.709 411.259 293.232 407.8 293.841L405.294 294.136H393.267V309.376H387.106ZM411.927 309.376L403.555 292.102L409.775 290.51L418.973 309.376H411.927ZM393.267 288.299H404.027C404.42 288.299 404.852 288.279 405.324 288.24C405.815 288.201 406.277 288.132 406.709 288.033C407.967 287.739 408.979 287.198 409.746 286.412C410.512 285.606 411.062 284.683 411.396 283.641C411.73 282.599 411.898 281.558 411.898 280.516C411.898 279.475 411.73 278.443 411.396 277.421C411.062 276.379 410.512 275.466 409.746 274.679C408.979 273.874 407.967 273.323 406.709 273.029C406.277 272.911 405.815 272.832 405.324 272.793C404.852 272.753 404.42 272.734 404.027 272.734H393.267V288.299ZM437.803 310.261C434.639 310.261 431.858 309.573 429.461 308.197C427.083 306.802 425.225 304.866 423.889 302.39C422.572 299.894 421.914 297.005 421.914 293.723C421.914 290.244 422.563 287.228 423.86 284.673C425.176 282.118 427.004 280.143 429.343 278.748C431.681 277.352 434.403 276.655 437.508 276.655C440.751 276.655 443.512 277.411 445.792 278.924C448.072 280.418 449.772 282.55 450.892 285.321C452.032 288.092 452.484 291.384 452.248 295.197H446.087V292.956C446.048 289.262 445.34 286.53 443.964 284.761C442.608 282.993 440.535 282.108 437.744 282.108C434.659 282.108 432.34 283.081 430.787 285.027C429.235 286.972 428.458 289.783 428.458 293.458C428.458 296.956 429.235 299.668 430.787 301.594C432.34 303.5 434.58 304.453 437.508 304.453C439.434 304.453 441.095 304.021 442.49 303.156C443.905 302.272 445.006 301.014 445.792 299.383L451.835 301.299C450.597 304.149 448.72 306.36 446.205 307.932C443.689 309.484 440.889 310.261 437.803 310.261ZM426.454 295.197V290.392H449.182V295.197H426.454ZM469.268 310.231C465.396 310.231 462.242 309.376 459.805 307.667C457.368 305.957 455.875 303.549 455.324 300.444L461.633 299.471C462.026 301.122 462.93 302.429 464.345 303.392C465.78 304.335 467.558 304.807 469.681 304.807C471.607 304.807 473.11 304.414 474.191 303.628C475.292 302.842 475.842 301.761 475.842 300.385C475.842 299.579 475.645 298.931 475.252 298.44C474.879 297.929 474.083 297.447 472.865 296.995C471.646 296.543 469.789 295.983 467.293 295.315C464.561 294.607 462.39 293.851 460.778 293.045C459.186 292.219 458.046 291.266 457.358 290.185C456.69 289.085 456.356 287.758 456.356 286.206C456.356 284.28 456.867 282.599 457.889 281.165C458.911 279.73 460.346 278.62 462.193 277.834C464.06 277.048 466.242 276.655 468.737 276.655C471.174 276.655 473.346 277.038 475.252 277.804C477.159 278.571 478.701 279.661 479.881 281.076C481.06 282.472 481.767 284.113 482.003 285.999L475.694 287.149C475.478 285.616 474.761 284.408 473.543 283.523C472.324 282.639 470.742 282.157 468.796 282.079C466.929 282 465.416 282.315 464.257 283.022C463.097 283.71 462.517 284.663 462.517 285.881C462.517 286.589 462.734 287.188 463.166 287.68C463.618 288.171 464.483 288.643 465.76 289.095C467.037 289.547 468.924 290.087 471.42 290.716C474.093 291.404 476.215 292.17 477.788 293.015C479.36 293.841 480.48 294.833 481.148 295.993C481.836 297.133 482.18 298.518 482.18 300.149C482.18 303.294 481.03 305.76 478.731 307.549C476.451 309.337 473.297 310.231 469.268 310.231ZM501.054 310.261C497.89 310.261 495.109 309.573 492.712 308.197C490.334 306.802 488.477 304.866 487.14 302.39C485.823 299.894 485.165 297.005 485.165 293.723C485.165 290.244 485.814 287.228 487.111 284.673C488.427 282.118 490.255 280.143 492.594 278.748C494.933 277.352 497.654 276.655 500.76 276.655C504.002 276.655 506.764 277.411 509.043 278.924C511.323 280.418 513.023 282.55 514.143 285.321C515.283 288.092 515.735 291.384 515.499 295.197H509.338V292.956C509.299 289.262 508.591 286.53 507.216 284.761C505.859 282.993 503.786 282.108 500.995 282.108C497.91 282.108 495.591 283.081 494.038 285.027C492.486 286.972 491.709 289.783 491.709 293.458C491.709 296.956 492.486 299.668 494.038 301.594C495.591 303.5 497.831 304.453 500.76 304.453C502.686 304.453 504.346 304.021 505.742 303.156C507.157 302.272 508.257 301.014 509.043 299.383L515.086 301.299C513.848 304.149 511.971 306.36 509.456 307.932C506.94 309.484 504.14 310.261 501.054 310.261ZM489.705 295.197V290.392H512.433V295.197H489.705ZM528.76 310.261C526.401 310.261 524.426 309.828 522.834 308.964C521.243 308.079 520.034 306.92 519.208 305.485C518.403 304.031 518 302.439 518 300.709C518 299.098 518.285 297.683 518.855 296.464C519.425 295.246 520.27 294.214 521.39 293.369C522.51 292.504 523.886 291.807 525.517 291.276C526.932 290.863 528.534 290.5 530.322 290.185C532.11 289.871 533.987 289.576 535.953 289.301C537.938 289.026 539.903 288.751 541.848 288.476L539.608 289.714C539.647 287.218 539.117 285.371 538.016 284.172C536.935 282.953 535.068 282.344 532.415 282.344C530.745 282.344 529.212 282.737 527.816 283.523C526.421 284.29 525.448 285.567 524.898 287.355L519.149 285.587C519.936 282.855 521.429 280.683 523.63 279.072C525.851 277.46 528.799 276.655 532.474 276.655C535.324 276.655 537.8 277.146 539.903 278.128C542.025 279.091 543.578 280.624 544.561 282.727C545.071 283.769 545.386 284.869 545.504 286.029C545.622 287.188 545.681 288.436 545.681 289.773V309.376H540.227V302.095L541.288 303.038C539.972 305.475 538.291 307.293 536.247 308.492C534.223 309.671 531.727 310.261 528.76 310.261ZM529.85 305.22C531.6 305.22 533.103 304.915 534.361 304.306C535.618 303.677 536.631 302.881 537.397 301.918C538.164 300.955 538.665 299.953 538.901 298.911C539.235 297.968 539.421 296.907 539.461 295.728C539.52 294.548 539.549 293.605 539.549 292.898L541.554 293.634C539.608 293.929 537.839 294.195 536.247 294.43C534.656 294.666 533.211 294.902 531.914 295.138C530.637 295.354 529.497 295.619 528.494 295.934C527.649 296.229 526.893 296.582 526.224 296.995C525.576 297.408 525.055 297.909 524.662 298.499C524.289 299.088 524.102 299.805 524.102 300.651C524.102 301.476 524.308 302.242 524.721 302.95C525.134 303.638 525.763 304.188 526.608 304.601C527.453 305.013 528.534 305.22 529.85 305.22ZM551.567 309.376V277.539H557.05V285.262L556.284 284.26C556.677 283.238 557.188 282.305 557.816 281.46C558.445 280.595 559.172 279.887 559.998 279.337C560.804 278.748 561.698 278.296 562.68 277.981C563.683 277.647 564.705 277.45 565.746 277.391C566.788 277.313 567.79 277.362 568.753 277.539V283.317C567.712 283.042 566.552 282.963 565.275 283.081C564.017 283.199 562.857 283.602 561.796 284.29C560.794 284.938 559.998 285.724 559.408 286.648C558.838 287.572 558.426 288.603 558.17 289.743C557.915 290.863 557.787 292.052 557.787 293.31V309.376H551.567ZM585.642 310.261C582.38 310.261 579.609 309.534 577.329 308.079C575.049 306.625 573.3 304.63 572.082 302.095C570.883 299.56 570.274 296.681 570.254 293.458C570.274 290.176 570.902 287.277 572.141 284.761C573.379 282.226 575.147 280.241 577.447 278.806C579.746 277.372 582.507 276.655 585.73 276.655C589.209 276.655 592.176 277.519 594.633 279.249C597.109 280.978 598.741 283.346 599.527 286.353L593.395 288.122C592.786 286.333 591.783 284.948 590.388 283.965C589.012 282.963 587.43 282.462 585.642 282.462C583.618 282.462 581.957 282.943 580.66 283.906C579.363 284.85 578.4 286.147 577.771 287.798C577.142 289.448 576.818 291.335 576.798 293.458C576.818 296.74 577.565 299.393 579.039 301.417C580.532 303.441 582.733 304.453 585.642 304.453C587.627 304.453 589.229 304.001 590.447 303.097C591.685 302.174 592.629 300.857 593.277 299.147L599.527 300.621C598.485 303.726 596.765 306.114 594.368 307.784C591.97 309.435 589.062 310.261 585.642 310.261ZM626.108 309.376V293.723C626.108 292.485 626 291.217 625.784 289.92C625.588 288.603 625.195 287.385 624.605 286.265C624.035 285.145 623.22 284.24 622.158 283.553C621.117 282.865 619.751 282.521 618.061 282.521C616.96 282.521 615.919 282.708 614.936 283.081C613.953 283.435 613.089 284.014 612.342 284.82C611.615 285.626 611.035 286.687 610.602 288.004C610.19 289.321 609.983 290.922 609.983 292.809L606.151 291.365C606.151 288.476 606.692 285.931 607.772 283.73C608.853 281.509 610.406 279.779 612.43 278.541C614.454 277.303 616.901 276.684 619.77 276.684C621.972 276.684 623.819 277.038 625.313 277.745C626.806 278.453 628.015 279.386 628.938 280.546C629.882 281.686 630.599 282.934 631.09 284.29C631.582 285.646 631.916 286.972 632.093 288.269C632.27 289.566 632.358 290.706 632.358 291.689V309.376H626.108ZM603.734 309.376V266.926H609.246V289.832H609.983V309.376H603.734ZM648.302 309.376V266.926H673.448V273.088H654.463V285.056H669.91V291.247H654.463V309.376H648.302ZM689.953 310.261C686.77 310.261 684.008 309.543 681.67 308.109C679.331 306.674 677.523 304.699 676.246 302.183C674.988 299.648 674.359 296.73 674.359 293.428C674.359 290.107 675.007 287.188 676.305 284.673C677.602 282.138 679.419 280.172 681.758 278.777C684.097 277.362 686.829 276.655 689.953 276.655C693.137 276.655 695.898 277.372 698.237 278.806C700.576 280.241 702.384 282.216 703.661 284.732C704.939 287.247 705.577 290.146 705.577 293.428C705.577 296.749 704.929 299.678 703.632 302.213C702.354 304.728 700.546 306.704 698.208 308.138C695.869 309.553 693.117 310.261 689.953 310.261ZM689.953 304.453C693 304.453 695.269 303.431 696.763 301.387C698.276 299.324 699.033 296.671 699.033 293.428C699.033 290.107 698.266 287.454 696.734 285.469C695.22 283.464 692.96 282.462 689.953 282.462C687.89 282.462 686.19 282.934 684.853 283.877C683.517 284.801 682.525 286.088 681.876 287.739C681.228 289.37 680.903 291.266 680.903 293.428C680.903 296.769 681.67 299.442 683.203 301.446C684.736 303.451 686.986 304.453 689.953 304.453ZM722.285 310.231C720.083 310.231 718.236 309.877 716.743 309.17C715.249 308.462 714.03 307.539 713.087 306.399C712.163 305.239 711.456 303.982 710.965 302.626C710.473 301.27 710.139 299.943 709.962 298.646C709.785 297.349 709.697 296.209 709.697 295.226V277.539H715.947V293.192C715.947 294.43 716.045 295.708 716.241 297.025C716.458 298.322 716.851 299.53 717.421 300.651C718.01 301.771 718.826 302.675 719.867 303.363C720.929 304.05 722.304 304.394 723.994 304.394C725.095 304.394 726.137 304.217 727.119 303.864C728.102 303.49 728.957 302.901 729.684 302.095C730.431 301.289 731.01 300.228 731.423 298.911C731.855 297.595 732.072 295.993 732.072 294.106L735.904 295.551C735.904 298.44 735.364 300.994 734.283 303.215C733.202 305.416 731.649 307.136 729.625 308.374C727.601 309.612 725.154 310.231 722.285 310.231ZM732.809 309.376V300.179H732.072V277.539H738.292V309.376H732.809ZM767.136 309.376V293.723C767.136 292.485 767.028 291.217 766.812 289.92C766.615 288.603 766.222 287.385 765.633 286.265C765.063 285.145 764.247 284.24 763.186 283.553C762.144 282.865 760.778 282.521 759.088 282.521C757.988 282.521 756.946 282.708 755.964 283.081C754.981 283.435 754.116 284.014 753.369 284.82C752.642 285.626 752.063 286.687 751.63 288.004C751.217 289.321 751.011 290.922 751.011 292.809L747.179 291.365C747.179 288.476 747.719 285.931 748.8 283.73C749.881 281.509 751.434 279.779 753.458 278.541C755.482 277.303 757.929 276.684 760.798 276.684C762.999 276.684 764.847 277.038 766.34 277.745C767.834 278.453 769.042 279.386 769.966 280.546C770.909 281.686 771.627 282.934 772.118 284.29C772.609 285.646 772.944 286.972 773.12 288.269C773.297 289.566 773.386 290.706 773.386 291.689V309.376H767.136ZM744.762 309.376V277.539H750.274V286.736H751.011V309.376H744.762ZM791.539 310.261C788.571 310.261 786.007 309.524 783.845 308.05C781.703 306.576 780.042 304.571 778.863 302.036C777.703 299.481 777.124 296.612 777.124 293.428C777.124 290.225 777.713 287.365 778.892 284.85C780.072 282.315 781.742 280.32 783.904 278.865C786.085 277.391 788.67 276.655 791.657 276.655C794.664 276.655 797.189 277.391 799.233 278.865C801.296 280.32 802.849 282.315 803.891 284.85C804.952 287.385 805.483 290.244 805.483 293.428C805.483 296.612 804.952 299.471 803.891 302.007C802.829 304.542 801.267 306.556 799.203 308.05C797.14 309.524 794.585 310.261 791.539 310.261ZM792.394 304.689C794.418 304.689 796.069 304.208 797.346 303.245C798.624 302.282 799.557 300.955 800.147 299.265C800.736 297.575 801.031 295.629 801.031 293.428C801.031 291.227 800.727 289.281 800.117 287.591C799.528 285.901 798.604 284.584 797.346 283.641C796.108 282.698 794.526 282.226 792.6 282.226C790.556 282.226 788.876 282.727 787.559 283.73C786.242 284.732 785.26 286.078 784.611 287.768C783.982 289.458 783.668 291.345 783.668 293.428C783.668 295.531 783.982 297.437 784.611 299.147C785.26 300.837 786.223 302.183 787.5 303.186C788.797 304.188 790.429 304.689 792.394 304.689ZM801.031 309.376V286.471H800.324V266.926H806.514V309.376H801.031ZM821.985 310.261C819.626 310.261 817.651 309.828 816.06 308.964C814.468 308.079 813.259 306.92 812.434 305.485C811.628 304.031 811.225 302.439 811.225 300.709C811.225 299.098 811.51 297.683 812.08 296.464C812.65 295.246 813.495 294.214 814.615 293.369C815.735 292.504 817.111 291.807 818.742 291.276C820.157 290.863 821.759 290.5 823.547 290.185C825.336 289.871 827.212 289.576 829.178 289.301C831.163 289.026 833.128 288.751 835.074 288.476L832.833 289.714C832.872 287.218 832.342 285.371 831.241 284.172C830.16 282.953 828.293 282.344 825.64 282.344C823.97 282.344 822.437 282.737 821.041 283.523C819.646 284.29 818.673 285.567 818.123 287.355L812.375 285.587C813.161 282.855 814.654 280.683 816.855 279.072C819.076 277.46 822.024 276.655 825.699 276.655C828.549 276.655 831.025 277.146 833.128 278.128C835.25 279.091 836.803 280.624 837.786 282.727C838.297 283.769 838.611 284.869 838.729 286.029C838.847 287.188 838.906 288.436 838.906 289.773V309.376H833.452V302.095L834.513 303.038C833.197 305.475 831.516 307.293 829.473 308.492C827.448 309.671 824.952 310.261 821.985 310.261ZM823.076 305.22C824.825 305.22 826.328 304.915 827.586 304.306C828.844 303.677 829.856 302.881 830.622 301.918C831.389 300.955 831.89 299.953 832.126 298.911C832.46 297.968 832.646 296.907 832.686 295.728C832.745 294.548 832.774 293.605 832.774 292.898L834.779 293.634C832.833 293.929 831.064 294.195 829.473 294.43C827.881 294.666 826.436 294.902 825.139 295.138C823.862 295.354 822.722 295.619 821.72 295.934C820.874 296.229 820.118 296.582 819.45 296.995C818.801 297.408 818.28 297.909 817.887 298.499C817.514 299.088 817.327 299.805 817.327 300.651C817.327 301.476 817.533 302.242 817.946 302.95C818.359 303.638 818.988 304.188 819.833 304.601C820.678 305.013 821.759 305.22 823.076 305.22ZM863.01 309.376C861.006 309.769 859.04 309.936 857.114 309.877C855.188 309.819 853.469 309.445 851.955 308.757C850.442 308.069 849.302 306.989 848.536 305.515C847.848 304.198 847.475 302.861 847.416 301.505C847.376 300.13 847.357 298.577 847.357 296.848V268.695H853.547V296.553C853.547 297.83 853.557 298.941 853.577 299.884C853.616 300.827 853.822 301.623 854.196 302.272C854.903 303.49 856.024 304.188 857.556 304.365C859.109 304.522 860.927 304.453 863.01 304.159V309.376ZM841.254 282.491V277.539H863.01V282.491H841.254ZM868.543 272.321V266.337H874.705V272.321H868.543ZM868.543 309.376V277.539H874.705V309.376H868.543ZM895.614 310.261C892.43 310.261 889.669 309.543 887.33 308.109C884.992 306.674 883.184 304.699 881.906 302.183C880.648 299.648 880.02 296.73 880.02 293.428C880.02 290.107 880.668 287.188 881.965 284.673C883.262 282.138 885.08 280.172 887.419 278.777C889.757 277.362 892.489 276.655 895.614 276.655C898.798 276.655 901.559 277.372 903.898 278.806C906.236 280.241 908.044 282.216 909.322 284.732C910.599 287.247 911.238 290.146 911.238 293.428C911.238 296.749 910.589 299.678 909.292 302.213C908.015 304.728 906.207 306.704 903.868 308.138C901.529 309.553 898.778 310.261 895.614 310.261ZM895.614 304.453C898.66 304.453 900.93 303.431 902.424 301.387C903.937 299.324 904.694 296.671 904.694 293.428C904.694 290.107 903.927 287.454 902.394 285.469C900.881 283.464 898.621 282.462 895.614 282.462C893.55 282.462 891.851 282.934 890.514 283.877C889.178 284.801 888.185 286.088 887.537 287.739C886.888 289.37 886.564 291.266 886.564 293.428C886.564 296.769 887.33 299.442 888.863 301.446C890.396 303.451 892.646 304.453 895.614 304.453ZM938.292 309.376V293.723C938.292 292.485 938.184 291.217 937.968 289.92C937.772 288.603 937.379 287.385 936.789 286.265C936.219 285.145 935.403 284.24 934.342 283.553C933.301 282.865 931.935 282.521 930.245 282.521C929.144 282.521 928.102 282.708 927.12 283.081C926.137 283.435 925.272 284.014 924.526 284.82C923.798 285.626 923.219 286.687 922.786 288.004C922.374 289.321 922.167 290.922 922.167 292.809L918.335 291.365C918.335 288.476 918.875 285.931 919.956 283.73C921.037 281.509 922.59 279.779 924.614 278.541C926.638 277.303 929.085 276.684 931.954 276.684C934.155 276.684 936.003 277.038 937.496 277.745C938.99 278.453 940.199 279.386 941.122 280.546C942.066 281.686 942.783 282.934 943.274 284.29C943.766 285.646 944.1 286.972 944.277 288.269C944.454 289.566 944.542 290.706 944.542 291.689V309.376H938.292ZM915.918 309.376V277.539H921.43V286.736H922.167V309.376H915.918Z" fill="black"/>
</svg>
